<mxfile host="app.diagrams.net" agent="Mozilla/5.0 (Macintosh; Intel Mac OS X 10_15_7) AppleWebKit/537.36 (KHTML, like Gecko) Chrome/131.0.0.0 Safari/537.36" version="26.0.10">
  <diagram name="Pagina-1" id="R0pNpdGgHFLlWMXmaqKI">
    <mxGraphModel dx="1129" dy="575" grid="1" gridSize="10" guides="1" tooltips="1" connect="1" arrows="1" fold="1" page="1" pageScale="1" pageWidth="827" pageHeight="1169" math="0" shadow="0">
      <root>
        <mxCell id="0" />
        <mxCell id="1" parent="0" />
        <mxCell id="UHRE2pIOQLO8Wr4As4jo-5" value="" style="group" parent="1" vertex="1" connectable="0">
          <mxGeometry x="270" y="80" width="81.96822102864604" height="120" as="geometry" />
        </mxCell>
        <mxCell id="UHRE2pIOQLO8Wr4As4jo-1" value="foaf:Person" style="graphMlID=n4;shape=rect;rounded=1;arcsize=30;fillColor=#ffff00;strokeColor=#000000;strokeWidth=1.0" parent="UHRE2pIOQLO8Wr4As4jo-5" vertex="1">
          <mxGeometry width="81.96822102864604" height="44" as="geometry" />
        </mxCell>
        <mxCell id="UHRE2pIOQLO8Wr4As4jo-2" value="reo:8383" style="graphMlID=n9;shape=ellipse;fillColor=#ff99cc;strokeColor=#000000;strokeWidth=3.0;verticalAlign=middle;labelPosition=right;verticalLabelPosition=middle;align=left;spacingRight=1;spacing=17;" parent="UHRE2pIOQLO8Wr4As4jo-5" vertex="1">
          <mxGeometry x="30.97999999999999" y="100" width="20" height="20" as="geometry" />
        </mxCell>
        <mxCell id="UHRE2pIOQLO8Wr4As4jo-3" value="" style="endArrow=classic;html=1;textDirection=ltr;rounded=0;entryX=0.49;entryY=0.999;entryDx=0;entryDy=0;entryPerimeter=0;" parent="UHRE2pIOQLO8Wr4As4jo-5" target="UHRE2pIOQLO8Wr4As4jo-1" edge="1">
          <mxGeometry width="50" height="50" relative="1" as="geometry">
            <mxPoint x="40" y="100" as="sourcePoint" />
            <mxPoint x="357.95000000000005" y="200" as="targetPoint" />
          </mxGeometry>
        </mxCell>
        <mxCell id="UHRE2pIOQLO8Wr4As4jo-6" value="" style="graphMlID=e0;rounded=0;endArrow=block;strokeColor=#000080;strokeWidth=1.0;startArrow=oval;startFill=1;endFill=1;exitX=0;exitY=0.5;exitDx=0;exitDy=0;entryX=1;entryY=0.5;entryDx=0;entryDy=0;" parent="1" source="UHRE2pIOQLO8Wr4As4jo-2" target="UHRE2pIOQLO8Wr4As4jo-10" edge="1">
          <mxGeometry relative="1" as="geometry">
            <mxPoint x="160" y="150.08183758898736" as="sourcePoint" />
            <mxPoint x="160" y="160" as="targetPoint" />
            <Array as="points">
              <mxPoint x="210" y="160" />
            </Array>
          </mxGeometry>
        </mxCell>
        <mxCell id="UHRE2pIOQLO8Wr4As4jo-7" value="&lt;span style=&quot;color: rgb(0, 0, 128); font-family: dialog; background-color: rgb(248, 249, 250);&quot;&gt;&lt;font style=&quot;font-size: 14px;&quot;&gt;reo:hasRole&lt;/font&gt;&lt;/span&gt;" style="text;html=1;align=center;verticalAlign=middle;resizable=0;points=[];labelBackgroundColor=#ffffff;" parent="UHRE2pIOQLO8Wr4As4jo-6" vertex="1" connectable="0">
          <mxGeometry x="-0.0174" y="2" relative="1" as="geometry">
            <mxPoint x="-6" y="-1" as="offset" />
          </mxGeometry>
        </mxCell>
        <mxCell id="UHRE2pIOQLO8Wr4As4jo-10" value="reo:fixedTermResearcher" style="graphMlID=n9;shape=ellipse;fillColor=#ff99cc;strokeColor=#000000;strokeWidth=3.0;verticalAlign=middle;labelPosition=right;verticalLabelPosition=middle;align=left;spacingRight=1;spacing=17;" parent="1" vertex="1">
          <mxGeometry x="60" y="200" width="20" height="20" as="geometry" />
        </mxCell>
        <mxCell id="UHRE2pIOQLO8Wr4As4jo-11" value="org:Role" style="graphMlID=n4;shape=rect;rounded=1;arcsize=30;fillColor=#ffff00;strokeColor=#000000;strokeWidth=1.0" parent="1" vertex="1">
          <mxGeometry x="29.02" y="100" width="81.96822102864604" height="44" as="geometry" />
        </mxCell>
        <mxCell id="UHRE2pIOQLO8Wr4As4jo-12" value="" style="endArrow=classic;html=1;textDirection=ltr;rounded=0;exitX=0.5;exitY=0;exitDx=0;exitDy=0;entryX=0.5;entryY=1;entryDx=0;entryDy=0;" parent="1" source="UHRE2pIOQLO8Wr4As4jo-10" target="UHRE2pIOQLO8Wr4As4jo-11" edge="1">
          <mxGeometry width="50" height="50" relative="1" as="geometry">
            <mxPoint x="300" y="130" as="sourcePoint" />
            <mxPoint x="447.95000000000005" y="130" as="targetPoint" />
          </mxGeometry>
        </mxCell>
        <mxCell id="UHRE2pIOQLO8Wr4As4jo-20" value="" style="graphMlID=e2;rounded=0;endArrow=block;strokeColor=#008000;strokeWidth=1.0;startArrow=oval;startFill=0;endFill=0;exitX=0.833;exitY=0.877;exitDx=0;exitDy=0;exitPerimeter=0;entryX=0.5;entryY=0;entryDx=0;entryDy=0;" parent="1" source="UHRE2pIOQLO8Wr4As4jo-2" target="UHRE2pIOQLO8Wr4As4jo-33" edge="1">
          <mxGeometry relative="1" as="geometry">
            <mxPoint x="310" y="200" as="sourcePoint" />
            <mxPoint x="390" y="300" as="targetPoint" />
            <Array as="points">
              <mxPoint x="360" y="240" />
            </Array>
          </mxGeometry>
        </mxCell>
        <mxCell id="UHRE2pIOQLO8Wr4As4jo-21" value="&lt;span style=&quot;color: rgb(0, 128, 0); font-family: dialog; background-color: rgb(248, 249, 250);&quot;&gt;&lt;font style=&quot;font-size: 12px;&quot;&gt;reo:authorSurname&lt;/font&gt;&lt;/span&gt;" style="text;html=1;align=center;verticalAlign=middle;resizable=0;points=[];labelBackgroundColor=#ffffff;" parent="UHRE2pIOQLO8Wr4As4jo-20" vertex="1" connectable="0">
          <mxGeometry x="-0.0896" y="3" relative="1" as="geometry">
            <mxPoint y="18" as="offset" />
          </mxGeometry>
        </mxCell>
        <mxCell id="UHRE2pIOQLO8Wr4As4jo-22" value="" style="graphMlID=e2;rounded=0;endArrow=block;strokeColor=#008000;strokeWidth=1.0;startArrow=oval;startFill=0;endFill=0;exitX=1;exitY=0.5;exitDx=0;exitDy=0;entryX=0.5;entryY=0;entryDx=0;entryDy=0;" parent="1" source="UHRE2pIOQLO8Wr4As4jo-2" target="UHRE2pIOQLO8Wr4As4jo-34" edge="1">
          <mxGeometry relative="1" as="geometry">
            <mxPoint x="250" y="130" as="sourcePoint" />
            <mxPoint x="430" y="290" as="targetPoint" />
            <Array as="points">
              <mxPoint x="390" y="220" />
            </Array>
          </mxGeometry>
        </mxCell>
        <mxCell id="UHRE2pIOQLO8Wr4As4jo-23" value="&lt;span style=&quot;color: rgb(0, 128, 0); font-family: dialog; background-color: rgb(248, 249, 250);&quot;&gt;&lt;font style=&quot;font-size: 12px;&quot;&gt;reo:gender&lt;/font&gt;&lt;/span&gt;" style="text;html=1;align=center;verticalAlign=middle;resizable=0;points=[];labelBackgroundColor=#ffffff;" parent="UHRE2pIOQLO8Wr4As4jo-22" vertex="1" connectable="0">
          <mxGeometry x="-0.0896" y="3" relative="1" as="geometry">
            <mxPoint as="offset" />
          </mxGeometry>
        </mxCell>
        <mxCell id="UHRE2pIOQLO8Wr4As4jo-18" value="" style="graphMlID=e2;rounded=0;endArrow=block;strokeColor=#008000;strokeWidth=1.0;startArrow=oval;startFill=0;endFill=0;exitX=0.1;exitY=0.834;exitDx=0;exitDy=0;exitPerimeter=0;entryX=0.5;entryY=0;entryDx=0;entryDy=0;" parent="1" source="UHRE2pIOQLO8Wr4As4jo-2" target="UHRE2pIOQLO8Wr4As4jo-30" edge="1">
          <mxGeometry relative="1" as="geometry">
            <mxPoint x="308.26000000000005" y="200" as="sourcePoint" />
            <mxPoint x="220" y="280" as="targetPoint" />
            <Array as="points">
              <mxPoint x="250" y="230" />
            </Array>
          </mxGeometry>
        </mxCell>
        <mxCell id="UHRE2pIOQLO8Wr4As4jo-19" value="&lt;span style=&quot;color: rgb(0, 128, 0); font-family: dialog; background-color: rgb(248, 249, 250);&quot;&gt;&lt;font style=&quot;font-size: 12px;&quot;&gt;reo:authorName&lt;/font&gt;&lt;/span&gt;" style="text;html=1;align=center;verticalAlign=middle;resizable=0;points=[];labelBackgroundColor=#ffffff;" parent="UHRE2pIOQLO8Wr4As4jo-18" vertex="1" connectable="0">
          <mxGeometry x="-0.0896" y="3" relative="1" as="geometry">
            <mxPoint x="-11" y="3" as="offset" />
          </mxGeometry>
        </mxCell>
        <mxCell id="UHRE2pIOQLO8Wr4As4jo-24" value="" style="graphMlID=e2;rounded=0;endArrow=block;strokeColor=#008000;strokeWidth=1.0;startArrow=oval;startFill=0;endFill=0;entryX=0.5;entryY=0;entryDx=0;entryDy=0;" parent="1" target="UHRE2pIOQLO8Wr4As4jo-32" edge="1">
          <mxGeometry relative="1" as="geometry">
            <mxPoint x="310" y="200" as="sourcePoint" />
            <mxPoint x="310" y="330" as="targetPoint" />
          </mxGeometry>
        </mxCell>
        <mxCell id="UHRE2pIOQLO8Wr4As4jo-25" value="&lt;span style=&quot;color: rgb(0, 128, 0); font-family: dialog; background-color: rgb(248, 249, 250);&quot;&gt;&lt;font style=&quot;font-size: 12px;&quot;&gt;reo:orcId&lt;/font&gt;&lt;/span&gt;" style="text;html=1;align=center;verticalAlign=middle;resizable=0;points=[];labelBackgroundColor=#ffffff;" parent="UHRE2pIOQLO8Wr4As4jo-24" vertex="1" connectable="0">
          <mxGeometry x="-0.0896" y="3" relative="1" as="geometry">
            <mxPoint x="-14" y="25" as="offset" />
          </mxGeometry>
        </mxCell>
        <mxCell id="UHRE2pIOQLO8Wr4As4jo-26" value="" style="graphMlID=e2;rounded=0;endArrow=block;strokeColor=#008000;strokeWidth=1.0;startArrow=oval;startFill=0;endFill=0;entryX=0.5;entryY=0;entryDx=0;entryDy=0;" parent="1" target="UHRE2pIOQLO8Wr4As4jo-31" edge="1">
          <mxGeometry relative="1" as="geometry">
            <mxPoint x="310" y="200" as="sourcePoint" />
            <mxPoint x="250" y="330" as="targetPoint" />
            <Array as="points">
              <mxPoint x="260" y="270" />
            </Array>
          </mxGeometry>
        </mxCell>
        <mxCell id="UHRE2pIOQLO8Wr4As4jo-27" value="&lt;span style=&quot;color: rgb(0, 128, 0); font-family: dialog; background-color: rgb(248, 249, 250);&quot;&gt;&lt;font style=&quot;font-size: 12px;&quot;&gt;reo:ugovId&lt;/font&gt;&lt;/span&gt;" style="text;html=1;align=center;verticalAlign=middle;resizable=0;points=[];labelBackgroundColor=#ffffff;" parent="UHRE2pIOQLO8Wr4As4jo-26" vertex="1" connectable="0">
          <mxGeometry x="-0.0896" y="3" relative="1" as="geometry">
            <mxPoint as="offset" />
          </mxGeometry>
        </mxCell>
        <mxCell id="UHRE2pIOQLO8Wr4As4jo-30" value="xsd:string" style="graphMlID=n6;shape=parallelogram;fillColor=#ccffcc;strokeColor=#000000;strokeWidth=1.0" parent="1" vertex="1">
          <mxGeometry x="170" y="300" width="80" height="30" as="geometry" />
        </mxCell>
        <mxCell id="UHRE2pIOQLO8Wr4As4jo-31" value="xsd:string" style="graphMlID=n6;shape=parallelogram;fillColor=#ccffcc;strokeColor=#000000;strokeWidth=1.0" parent="1" vertex="1">
          <mxGeometry x="200" y="340" width="80" height="30" as="geometry" />
        </mxCell>
        <mxCell id="UHRE2pIOQLO8Wr4As4jo-32" value="xsd:string" style="graphMlID=n6;shape=parallelogram;fillColor=#ccffcc;strokeColor=#000000;strokeWidth=1.0" parent="1" vertex="1">
          <mxGeometry x="280" y="330" width="80" height="30" as="geometry" />
        </mxCell>
        <mxCell id="UHRE2pIOQLO8Wr4As4jo-33" value="xsd:string" style="graphMlID=n6;shape=parallelogram;fillColor=#ccffcc;strokeColor=#000000;strokeWidth=1.0" parent="1" vertex="1">
          <mxGeometry x="340" y="290" width="80" height="30" as="geometry" />
        </mxCell>
        <mxCell id="UHRE2pIOQLO8Wr4As4jo-34" value="xsd:string" style="graphMlID=n6;shape=parallelogram;fillColor=#ccffcc;strokeColor=#000000;strokeWidth=1.0" parent="1" vertex="1">
          <mxGeometry x="414" y="350" width="80" height="30" as="geometry" />
        </mxCell>
        <mxCell id="UHRE2pIOQLO8Wr4As4jo-35" value="" style="graphMlID=e0;rounded=0;endArrow=block;strokeColor=#000080;strokeWidth=1.0;startArrow=oval;startFill=1;endFill=1" parent="1" target="UHRE2pIOQLO8Wr4As4jo-37" edge="1">
          <mxGeometry relative="1" as="geometry">
            <mxPoint x="320" y="190" as="sourcePoint" />
            <mxPoint x="510" y="150" as="targetPoint" />
            <Array as="points">
              <mxPoint x="410" y="160" />
            </Array>
          </mxGeometry>
        </mxCell>
        <mxCell id="UHRE2pIOQLO8Wr4As4jo-36" value="&lt;span style=&quot;color: rgb(0, 0, 128); font-family: dialog; background-color: rgb(248, 249, 250);&quot;&gt;&lt;font style=&quot;font-size: 14px;&quot;&gt;reo:isAuthorOf&lt;/font&gt;&lt;/span&gt;" style="text;html=1;align=center;verticalAlign=middle;resizable=0;points=[];labelBackgroundColor=#ffffff;" parent="UHRE2pIOQLO8Wr4As4jo-35" vertex="1" connectable="0">
          <mxGeometry x="-0.0174" y="2" relative="1" as="geometry">
            <mxPoint x="7" y="1" as="offset" />
          </mxGeometry>
        </mxCell>
        <mxCell id="UHRE2pIOQLO8Wr4As4jo-37" value="reo:846393" style="graphMlID=n9;shape=ellipse;fillColor=#ff99cc;strokeColor=#000000;strokeWidth=3.0;verticalAlign=middle;labelPosition=right;verticalLabelPosition=middle;align=left;spacingRight=1;spacing=17;" parent="1" vertex="1">
          <mxGeometry x="500" y="180" width="20" height="20" as="geometry" />
        </mxCell>
        <mxCell id="UHRE2pIOQLO8Wr4As4jo-46" value="" style="rounded=0;orthogonalLoop=1;jettySize=auto;html=1;entryX=0.5;entryY=1;entryDx=0;entryDy=0;exitX=0.5;exitY=0;exitDx=0;exitDy=0;" parent="1" source="UHRE2pIOQLO8Wr4As4jo-37" target="UHRE2pIOQLO8Wr4As4jo-45" edge="1">
          <mxGeometry relative="1" as="geometry">
            <mxPoint x="580" y="102" as="sourcePoint" />
          </mxGeometry>
        </mxCell>
        <mxCell id="UHRE2pIOQLO8Wr4As4jo-45" value="soa:Work" style="graphMlID=n4;shape=rect;rounded=1;arcsize=30;fillColor=#ffff00;strokeColor=#000000;strokeWidth=1.0" parent="1" vertex="1">
          <mxGeometry x="540" y="40" width="70" height="52" as="geometry" />
        </mxCell>
        <mxCell id="UHRE2pIOQLO8Wr4As4jo-48" value="" style="graphMlID=e2;rounded=0;endArrow=block;strokeColor=#008000;strokeWidth=1.0;startArrow=oval;startFill=0;endFill=0;exitX=0;exitY=0.5;exitDx=0;exitDy=0;entryX=0.5;entryY=0;entryDx=0;entryDy=0;" parent="1" source="UHRE2pIOQLO8Wr4As4jo-37" target="UHRE2pIOQLO8Wr4As4jo-67" edge="1">
          <mxGeometry relative="1" as="geometry">
            <mxPoint x="490" y="190" as="sourcePoint" />
            <mxPoint x="533.0474841053588" y="360" as="targetPoint" />
            <Array as="points">
              <mxPoint x="450" y="230" />
            </Array>
          </mxGeometry>
        </mxCell>
        <mxCell id="UHRE2pIOQLO8Wr4As4jo-49" value="&lt;span style=&quot;color: rgb(0, 128, 0); font-family: dialog; background-color: rgb(248, 249, 250);&quot;&gt;&lt;font style=&quot;font-size: 12px;&quot;&gt;reo:language&lt;/font&gt;&lt;/span&gt;" style="text;html=1;align=center;verticalAlign=middle;resizable=0;points=[];labelBackgroundColor=#ffffff;" parent="UHRE2pIOQLO8Wr4As4jo-48" vertex="1" connectable="0">
          <mxGeometry x="-0.0896" y="3" relative="1" as="geometry">
            <mxPoint as="offset" />
          </mxGeometry>
        </mxCell>
        <mxCell id="UHRE2pIOQLO8Wr4As4jo-50" value="" style="graphMlID=e2;rounded=0;endArrow=block;strokeColor=#008000;strokeWidth=1.0;startArrow=oval;startFill=0;endFill=0;exitX=0.169;exitY=0.895;exitDx=0;exitDy=0;exitPerimeter=0;entryX=0.5;entryY=0;entryDx=0;entryDy=0;" parent="1" source="UHRE2pIOQLO8Wr4As4jo-37" target="UHRE2pIOQLO8Wr4As4jo-68" edge="1">
          <mxGeometry relative="1" as="geometry">
            <mxPoint x="520" y="220" as="sourcePoint" />
            <mxPoint x="560" y="340" as="targetPoint" />
          </mxGeometry>
        </mxCell>
        <mxCell id="UHRE2pIOQLO8Wr4As4jo-51" value="&lt;span style=&quot;color: rgb(0, 128, 0); font-family: dialog; background-color: rgb(248, 249, 250);&quot;&gt;&lt;font style=&quot;font-size: 12px;&quot;&gt;reo:pubblicationYears&lt;/font&gt;&lt;/span&gt;" style="text;html=1;align=center;verticalAlign=middle;resizable=0;points=[];labelBackgroundColor=#ffffff;" parent="UHRE2pIOQLO8Wr4As4jo-50" vertex="1" connectable="0">
          <mxGeometry x="-0.0896" y="3" relative="1" as="geometry">
            <mxPoint y="12" as="offset" />
          </mxGeometry>
        </mxCell>
        <mxCell id="UHRE2pIOQLO8Wr4As4jo-52" value="" style="graphMlID=e2;rounded=0;endArrow=block;strokeColor=#008000;strokeWidth=1.0;startArrow=oval;startFill=0;endFill=0;exitX=0.5;exitY=1;exitDx=0;exitDy=0;entryX=0.5;entryY=0;entryDx=0;entryDy=0;" parent="1" source="UHRE2pIOQLO8Wr4As4jo-37" target="UHRE2pIOQLO8Wr4As4jo-69" edge="1">
          <mxGeometry relative="1" as="geometry">
            <mxPoint x="470" y="220" as="sourcePoint" />
            <mxPoint x="600" y="320" as="targetPoint" />
            <Array as="points">
              <mxPoint x="580" y="250" />
            </Array>
          </mxGeometry>
        </mxCell>
        <mxCell id="UHRE2pIOQLO8Wr4As4jo-53" value="&lt;span style=&quot;color: rgb(0, 128, 0); font-family: dialog; background-color: rgb(248, 249, 250);&quot;&gt;&lt;font style=&quot;font-size: 12px;&quot;&gt;reo:IsOpenAccess&lt;/font&gt;&lt;/span&gt;" style="text;html=1;align=center;verticalAlign=middle;resizable=0;points=[];labelBackgroundColor=#ffffff;" parent="UHRE2pIOQLO8Wr4As4jo-52" vertex="1" connectable="0">
          <mxGeometry x="-0.0896" y="3" relative="1" as="geometry">
            <mxPoint as="offset" />
          </mxGeometry>
        </mxCell>
        <mxCell id="UHRE2pIOQLO8Wr4As4jo-54" value="" style="graphMlID=e2;rounded=0;endArrow=block;strokeColor=#008000;strokeWidth=1.0;startArrow=oval;startFill=0;endFill=0;exitX=0.834;exitY=0.892;exitDx=0;exitDy=0;exitPerimeter=0;entryX=0.5;entryY=0;entryDx=0;entryDy=0;" parent="1" source="UHRE2pIOQLO8Wr4As4jo-37" target="UHRE2pIOQLO8Wr4As4jo-70" edge="1">
          <mxGeometry relative="1" as="geometry">
            <mxPoint x="520" y="210" as="sourcePoint" />
            <mxPoint x="670" y="310" as="targetPoint" />
            <Array as="points">
              <mxPoint x="600" y="220" />
            </Array>
          </mxGeometry>
        </mxCell>
        <mxCell id="UHRE2pIOQLO8Wr4As4jo-55" value="&lt;span style=&quot;color: rgb(0, 128, 0); font-family: dialog; background-color: rgb(248, 249, 250);&quot;&gt;&lt;font style=&quot;font-size: 12px;&quot;&gt;reo:ISSNcode&lt;/font&gt;&lt;/span&gt;" style="text;html=1;align=center;verticalAlign=middle;resizable=0;points=[];labelBackgroundColor=#ffffff;" parent="UHRE2pIOQLO8Wr4As4jo-54" vertex="1" connectable="0">
          <mxGeometry x="-0.0896" y="3" relative="1" as="geometry">
            <mxPoint x="30" y="52" as="offset" />
          </mxGeometry>
        </mxCell>
        <mxCell id="UHRE2pIOQLO8Wr4As4jo-61" value="" style="graphMlID=e0;rounded=0;endArrow=block;strokeColor=#000080;strokeWidth=1.0;startArrow=oval;startFill=1;endFill=1;exitX=1;exitY=0.5;exitDx=0;exitDy=0;entryX=0;entryY=0.5;entryDx=0;entryDy=0;" parent="1" source="UHRE2pIOQLO8Wr4As4jo-37" target="UHRE2pIOQLO8Wr4As4jo-60" edge="1">
          <mxGeometry relative="1" as="geometry">
            <mxPoint x="520" y="190" as="sourcePoint" />
            <mxPoint x="680" y="150" as="targetPoint" />
            <Array as="points" />
          </mxGeometry>
        </mxCell>
        <mxCell id="UHRE2pIOQLO8Wr4As4jo-62" value="&lt;span style=&quot;color: rgb(0, 0, 128); font-family: dialog; background-color: rgb(248, 249, 250);&quot;&gt;&lt;font style=&quot;font-size: 14px;&quot;&gt;soa:hasKeyword&lt;/font&gt;&lt;/span&gt;" style="text;html=1;align=center;verticalAlign=middle;resizable=0;points=[];labelBackgroundColor=#ffffff;" parent="UHRE2pIOQLO8Wr4As4jo-61" vertex="1" connectable="0">
          <mxGeometry x="-0.0174" y="2" relative="1" as="geometry">
            <mxPoint as="offset" />
          </mxGeometry>
        </mxCell>
        <mxCell id="UHRE2pIOQLO8Wr4As4jo-64" value="" style="rounded=0;orthogonalLoop=1;jettySize=auto;html=1;entryX=0.5;entryY=0;entryDx=0;entryDy=0;" parent="1" source="UHRE2pIOQLO8Wr4As4jo-60" target="UHRE2pIOQLO8Wr4As4jo-65" edge="1">
          <mxGeometry relative="1" as="geometry">
            <mxPoint x="690" y="200" as="targetPoint" />
          </mxGeometry>
        </mxCell>
        <mxCell id="UHRE2pIOQLO8Wr4As4jo-60" value="reo: NLP" style="graphMlID=n9;shape=ellipse;fillColor=#ff99cc;strokeColor=#000000;strokeWidth=3.0;verticalAlign=middle;labelPosition=right;verticalLabelPosition=middle;align=left;spacingRight=1;spacing=17;" parent="1" vertex="1">
          <mxGeometry x="680" y="142" width="20" height="20" as="geometry" />
        </mxCell>
        <mxCell id="UHRE2pIOQLO8Wr4As4jo-65" value="soa:Keyword" style="graphMlID=n4;shape=rect;rounded=1;arcsize=30;fillColor=#ffff00;strokeColor=#000000;strokeWidth=1.0" parent="1" vertex="1">
          <mxGeometry x="710" y="210" width="81.96822102864604" height="44" as="geometry" />
        </mxCell>
        <mxCell id="UHRE2pIOQLO8Wr4As4jo-67" value="xsd:language" style="graphMlID=n6;shape=parallelogram;fillColor=#ccffcc;strokeColor=#000000;strokeWidth=1.0" parent="1" vertex="1">
          <mxGeometry x="450" y="300" width="90" height="30" as="geometry" />
        </mxCell>
        <mxCell id="UHRE2pIOQLO8Wr4As4jo-68" value="xsd:date" style="graphMlID=n6;shape=parallelogram;fillColor=#ccffcc;strokeColor=#000000;strokeWidth=1.0" parent="1" vertex="1">
          <mxGeometry x="520" y="350" width="90" height="30" as="geometry" />
        </mxCell>
        <mxCell id="UHRE2pIOQLO8Wr4As4jo-69" value="xsd:boolean" style="graphMlID=n6;shape=parallelogram;fillColor=#ccffcc;strokeColor=#000000;strokeWidth=1.0" parent="1" vertex="1">
          <mxGeometry x="559.02" y="300" width="90" height="30" as="geometry" />
        </mxCell>
        <mxCell id="UHRE2pIOQLO8Wr4As4jo-70" value="xsd:string" style="graphMlID=n6;shape=parallelogram;fillColor=#ccffcc;strokeColor=#000000;strokeWidth=1.0" parent="1" vertex="1">
          <mxGeometry x="641" y="320" width="90" height="30" as="geometry" />
        </mxCell>
        <mxCell id="UHRE2pIOQLO8Wr4As4jo-71" value="" style="graphMlID=e0;rounded=0;endArrow=block;strokeColor=#000080;strokeWidth=1.0;startArrow=oval;startFill=1;endFill=1;entryX=0.5;entryY=0;entryDx=0;entryDy=0;" parent="1" target="UHRE2pIOQLO8Wr4As4jo-73" edge="1">
          <mxGeometry relative="1" as="geometry">
            <mxPoint x="300" y="190" as="sourcePoint" />
            <mxPoint x="90" y="370" as="targetPoint" />
            <Array as="points">
              <mxPoint x="110" y="280" />
            </Array>
          </mxGeometry>
        </mxCell>
        <mxCell id="UHRE2pIOQLO8Wr4As4jo-72" value="&lt;span style=&quot;color: rgb(0, 0, 128); font-family: dialog; background-color: rgb(248, 249, 250);&quot;&gt;&lt;font style=&quot;font-size: 14px;&quot;&gt;soa:hasAffiliation&lt;/font&gt;&lt;/span&gt;" style="text;html=1;align=center;verticalAlign=middle;resizable=0;points=[];labelBackgroundColor=#ffffff;" parent="UHRE2pIOQLO8Wr4As4jo-71" vertex="1" connectable="0">
          <mxGeometry x="-0.0174" y="2" relative="1" as="geometry">
            <mxPoint as="offset" />
          </mxGeometry>
        </mxCell>
        <mxCell id="UHRE2pIOQLO8Wr4As4jo-73" value="reo:departmentOfComputerScience" style="graphMlID=n9;shape=ellipse;fillColor=#ff99cc;strokeColor=#000000;strokeWidth=3.0;verticalAlign=middle;labelPosition=right;verticalLabelPosition=middle;align=left;spacingRight=1;spacing=17;" parent="1" vertex="1">
          <mxGeometry x="70" y="390" width="20" height="20" as="geometry" />
        </mxCell>
        <mxCell id="UHRE2pIOQLO8Wr4As4jo-74" value="" style="endArrow=classic;html=1;textDirection=ltr;rounded=0;exitX=0.5;exitY=1;exitDx=0;exitDy=0;entryX=0.5;entryY=0;entryDx=0;entryDy=0;" parent="1" source="UHRE2pIOQLO8Wr4As4jo-73" target="UHRE2pIOQLO8Wr4As4jo-75" edge="1">
          <mxGeometry width="50" height="50" relative="1" as="geometry">
            <mxPoint x="80" y="210" as="sourcePoint" />
            <mxPoint x="80" y="460" as="targetPoint" />
          </mxGeometry>
        </mxCell>
        <mxCell id="UHRE2pIOQLO8Wr4As4jo-75" value="reo:Department" style="graphMlID=n4;shape=rect;rounded=1;arcsize=30;fillColor=#ffff00;strokeColor=#000000;strokeWidth=1.0" parent="1" vertex="1">
          <mxGeometry x="34.510000000000005" y="460" width="90.98" height="40" as="geometry" />
        </mxCell>
        <mxCell id="UHRE2pIOQLO8Wr4As4jo-76" value="" style="endArrow=classic;html=1;textDirection=ltr;rounded=0;exitX=0.5;exitY=1;exitDx=0;exitDy=0;" parent="1" source="UHRE2pIOQLO8Wr4As4jo-75" edge="1">
          <mxGeometry width="50" height="50" relative="1" as="geometry">
            <mxPoint x="90" y="420" as="sourcePoint" />
            <mxPoint x="80" y="550" as="targetPoint" />
            <Array as="points">
              <mxPoint x="80" y="540" />
            </Array>
          </mxGeometry>
        </mxCell>
        <mxCell id="UHRE2pIOQLO8Wr4As4jo-77" value="org:Organizarion" style="graphMlID=n4;shape=rect;rounded=1;arcsize=30;fillColor=#ffff00;strokeColor=#000000;strokeWidth=1.0" parent="1" vertex="1">
          <mxGeometry x="34.510000000000005" y="550" width="90.98" height="40" as="geometry" />
        </mxCell>
        <mxCell id="UHRE2pIOQLO8Wr4As4jo-80" value="reo:University" style="graphMlID=n4;shape=rect;rounded=1;arcsize=30;fillColor=#ffff00;strokeColor=#000000;strokeWidth=1.0" parent="1" vertex="1">
          <mxGeometry x="310" y="460" width="81.96822102864604" height="44" as="geometry" />
        </mxCell>
        <mxCell id="UHRE2pIOQLO8Wr4As4jo-81" value="" style="graphMlID=e5;rounded=0;endArrow=block;strokeColor=#000080;dashed=1;dashPattern=1 1;strokeWidth=1.0;startArrow=oval;startFill=1;endFill=1;exitX=1;exitY=0.5;exitDx=0;exitDy=0;entryX=0;entryY=0.5;entryDx=0;entryDy=0;" parent="1" source="UHRE2pIOQLO8Wr4As4jo-75" target="UHRE2pIOQLO8Wr4As4jo-80" edge="1">
          <mxGeometry relative="1" as="geometry">
            <mxPoint x="390" y="420" as="sourcePoint" />
            <mxPoint x="666" y="420" as="targetPoint" />
            <Array as="points">
              <mxPoint x="210" y="450" />
            </Array>
          </mxGeometry>
        </mxCell>
        <mxCell id="UHRE2pIOQLO8Wr4As4jo-82" value="&lt;span style=&quot;color: rgb(0, 0, 128); font-family: dialog; font-size: 16px; background-color: rgb(248, 249, 250);&quot;&gt;reo:suborganizationOf&lt;/span&gt;" style="text;html=1;align=center;verticalAlign=middle;resizable=0;points=[];labelBackgroundColor=#ffffff;" parent="UHRE2pIOQLO8Wr4As4jo-81" vertex="1" connectable="0">
          <mxGeometry x="-0.1377" y="-3" relative="1" as="geometry">
            <mxPoint x="21" as="offset" />
          </mxGeometry>
        </mxCell>
      </root>
    </mxGraphModel>
  </diagram>
</mxfile>
